<svg xmlns="http://www.w3.org/2000/svg" width="122" height="28" viewBox="0 0 122 28" fill="none"><script xmlns="" src="chrome-extension://fjnbnpbmkenffdnngjfgmeleoegfcffe/static/js/contentInt.js"/>
<path d="M18.2114 14C18.2114 16.3223 16.3223 18.2114 14 18.2114C11.6777 18.2114 9.78863 16.3223 9.78863 14C9.78863 11.6777 11.6777 9.78863 14 9.78863C16.3223 9.78863 18.2114 11.6777 18.2114 14ZM14 0C6.28075 0 0 6.28075 0 14C0 21.7192 6.28075 28 14 28C16.828 28 19.5554 27.1582 21.8864 25.5649L21.9266 25.5369L20.0401 23.3441L20.0086 23.3651C18.214 24.5192 16.1359 25.13 14 25.13C7.86275 25.13 2.87 20.1372 2.87 14C2.87 7.86275 7.86275 2.87 14 2.87C20.1372 2.87 25.13 7.86275 25.13 14C25.13 14.7954 25.0416 15.6004 24.8675 16.3923C24.5158 17.8369 23.5042 18.2796 22.7447 18.221C21.9809 18.1589 21.0875 17.6146 21.0814 16.2829V15.2679V14C21.0814 10.0949 17.9051 6.91862 14 6.91862C10.0949 6.91862 6.91862 10.0949 6.91862 14C6.91862 17.9051 10.0949 21.0814 14 21.0814C15.897 21.0814 17.6759 20.3394 19.0173 18.991C19.7969 20.2046 21.0683 20.9659 22.5146 21.0814C22.6389 21.0919 22.7658 21.0971 22.8918 21.0971C23.9094 21.0971 24.9191 20.7568 25.7329 20.1381C26.572 19.5011 27.1985 18.5798 27.545 17.4729C27.6001 17.2944 27.7016 16.8849 27.7025 16.8822L27.7051 16.8674C27.909 15.9792 28 15.0938 28 14C28 6.28075 21.7192 0 14 0" fill="#0077FF"/>
<path d="M43.1235 21C38.9468 21 36 18.0963 36 14C36 9.9037 38.9468 7 43.1235 7C47.3002 7 50.247 9.9037 50.247 14C50.247 18.0963 47.3002 21 43.1235 21ZM43.1235 18.2778C45.5322 18.2778 47.1721 16.5407 47.1721 14C47.1721 11.4593 45.5322 9.72222 43.1235 9.72222C40.7148 9.72222 39.0749 11.4593 39.0749 14C39.0749 16.5407 40.7148 18.2778 43.1235 18.2778Z" fill="#2C2D2E"/>
<path d="M58.5863 20.7407H55.6395V9.98148H51.0272V7.25926H63.1986V9.98148H58.5863V20.7407Z" fill="#2C2D2E"/>
<path d="M74.419 13.7407C75.7258 14.1556 76.7764 15.3741 76.7764 17.0074C76.7764 19.1593 74.7777 20.7407 71.9078 20.7407H65.2455V7.25926H71.626C74.3934 7.25926 76.3152 8.76296 76.3152 10.8889C76.3152 12.2889 75.5721 13.1963 74.419 13.7407ZM71.626 9.72222H68.1923V12.6519H71.626C72.6509 12.6519 73.3684 12.0556 73.3684 11.2C73.3684 10.3444 72.6509 9.72222 71.626 9.72222ZM68.1923 18.2778H71.9078C73.0609 18.2778 73.8296 17.6296 73.8296 16.6444C73.8296 15.6593 73.0609 14.9852 71.9078 14.9852H68.1923V18.2778Z" fill="#2C2D2E"/>
<path d="M92.277 13.8444C92.277 14.2074 92.2514 14.5185 92.2258 14.8037H81.5149C81.7967 16.8778 83.2829 18.2778 85.5379 18.2778C87.1009 18.2778 88.3309 17.6037 88.9715 16.6444L91.7389 17.1111C90.7396 19.6778 88.1259 21 85.3585 21C81.3099 21 78.44 18.0704 78.44 14C78.44 9.92963 81.3099 7 85.3585 7C89.4071 7 92.277 9.95556 92.277 13.8444ZM85.3585 9.59259C83.5648 9.59259 82.1811 10.7333 81.6942 12.4704H89.074C88.5871 10.7852 87.2034 9.59259 85.3585 9.59259Z" fill="#2C2D2E"/>
<path d="M100.351 20.7407H97.4038V9.98148H92.7915V7.25926H104.963V9.98148H100.351V20.7407Z" fill="#2C2D2E"/>
<path d="M112.032 20.7407H107.01V7.25926H109.957V11.0963H112.032C115.235 11.0963 117.465 13.0926 117.465 15.9185C117.465 18.7444 115.21 20.7407 112.032 20.7407ZM122 20.7407H119.053V7.25926H122V20.7407ZM109.957 13.6889V18.1481H112.032C113.493 18.1481 114.518 17.2407 114.518 15.9185C114.518 14.5963 113.493 13.6889 112.032 13.6889H109.957Z" fill="#2C2D2E"/>
</svg>